<svg width="80" height="80" viewBox="0 0 80 80" fill="none" xmlns="http://www.w3.org/2000/svg">
<path d="M40 4C20.152 4 4 20.152 4 40C4 59.848 20.152 76 40 76C59.848 76 76 59.848 76 40C76 20.152 59.848 4 40 4ZM40 72.8C21.912 72.8 7.2 58.088 7.2 40C7.2 21.912 21.912 7.2 40 7.2C58.088 7.2 72.8 21.912 72.8 40C72.8 58.088 58.088 72.8 40 72.8ZM57.928 27.672C58.552 28.296 58.552 29.312 57.928 29.936L35.528 52.336C35.216 52.64 34.808 52.8 34.4 52.8C33.992 52.8 33.584 52.64 33.272 52.328L22.072 41.128C21.448 40.504 21.448 39.488 22.072 38.864C22.696 38.24 23.712 38.24 24.336 38.864L34.4 48.936L55.672 27.664C56.296 27.04 57.304 27.04 57.928 27.672Z" fill="#32D583"/>
</svg>
