<svg width="1441" height="507" viewBox="0 0 1441 507" fill="none" xmlns="http://www.w3.org/2000/svg">
<path d="M-10.6569 59.2254C-13.781 56.1012 -13.781 51.0359 -10.6569 47.9117L34.598 2.65687C37.7222 -0.467327 42.7875 -0.467329 45.9117 2.65687L91.1665 47.9117C94.2907 51.0359 94.2907 56.1012 91.1665 59.2254L45.9117 104.48C42.7875 107.604 37.7222 107.604 34.598 104.48L-10.6569 59.2254Z" fill="url(#paint0_linear_901_4368)" fill-opacity="0.16"/>
<path d="M-10.6569 219.225C-13.781 216.101 -13.781 211.036 -10.6569 207.912L34.598 162.657C37.7222 159.533 42.7875 159.533 45.9117 162.657L91.1665 207.912C94.2907 211.036 94.2907 216.101 91.1665 219.225L45.9117 264.48C42.7875 267.604 37.7222 267.604 34.598 264.48L-10.6569 219.225Z" fill="url(#paint1_linear_901_4368)" fill-opacity="0.16"/>
<path d="M-10.6569 379.225C-13.781 376.101 -13.781 371.036 -10.6569 367.912L34.598 322.657C37.7222 319.533 42.7875 319.533 45.9117 322.657L91.1665 367.912C94.2907 371.036 94.2907 376.101 91.1665 379.225L45.9117 424.48C42.7875 427.604 37.7222 427.604 34.598 424.48L-10.6569 379.225Z" fill="url(#paint2_linear_901_4368)" fill-opacity="0.16"/>
<path d="M69.3431 139.225C66.219 136.101 66.219 131.036 69.3431 127.912L114.598 82.6569C117.722 79.5327 122.787 79.5327 125.912 82.6569L171.167 127.912C174.291 131.036 174.291 136.101 171.167 139.225L125.912 184.48C122.787 187.604 117.722 187.604 114.598 184.48L69.3431 139.225Z" fill="url(#paint3_linear_901_4368)" fill-opacity="0.16"/>
<path d="M69.3431 299.225C66.219 296.101 66.219 291.036 69.3431 287.912L114.598 242.657C117.722 239.533 122.787 239.533 125.912 242.657L171.167 287.912C174.291 291.036 174.291 296.101 171.167 299.225L125.912 344.48C122.787 347.604 117.722 347.604 114.598 344.48L69.3431 299.225Z" fill="url(#paint4_linear_901_4368)" fill-opacity="0.16"/>
<path d="M69.3431 459.225C66.219 456.101 66.219 451.036 69.3431 447.912L114.598 402.657C117.722 399.533 122.787 399.533 125.912 402.657L171.167 447.912C174.291 451.036 174.291 456.101 171.167 459.225L125.912 504.48C122.787 507.604 117.722 507.604 114.598 504.48L69.3431 459.225Z" fill="url(#paint5_linear_901_4368)" fill-opacity="0.16"/>
<path d="M149.343 59.2254C146.219 56.1012 146.219 51.0359 149.343 47.9117L194.598 2.65687C197.722 -0.467327 202.787 -0.467329 205.912 2.65687L251.167 47.9117C254.291 51.0359 254.291 56.1012 251.167 59.2254L205.912 104.48C202.787 107.604 197.722 107.604 194.598 104.48L149.343 59.2254Z" fill="url(#paint6_linear_901_4368)" fill-opacity="0.16"/>
<path d="M149.343 219.225C146.219 216.101 146.219 211.036 149.343 207.912L194.598 162.657C197.722 159.533 202.787 159.533 205.912 162.657L251.167 207.912C254.291 211.036 254.291 216.101 251.167 219.225L205.912 264.48C202.787 267.604 197.722 267.604 194.598 264.48L149.343 219.225Z" fill="url(#paint7_linear_901_4368)" fill-opacity="0.16"/>
<path d="M149.343 379.225C146.219 376.101 146.219 371.036 149.343 367.912L194.598 322.657C197.722 319.533 202.787 319.533 205.912 322.657L251.167 367.912C254.291 371.036 254.291 376.101 251.167 379.225L205.912 424.48C202.787 427.604 197.722 427.604 194.598 424.48L149.343 379.225Z" fill="url(#paint8_linear_901_4368)" fill-opacity="0.16"/>
<path d="M229.343 139.225C226.219 136.101 226.219 131.036 229.343 127.912L274.598 82.6569C277.722 79.5327 282.787 79.5327 285.912 82.6569L331.167 127.912C334.291 131.036 334.291 136.101 331.167 139.225L285.912 184.48C282.787 187.604 277.722 187.604 274.598 184.48L229.343 139.225Z" fill="url(#paint9_linear_901_4368)" fill-opacity="0.16"/>
<path d="M229.343 299.225C226.219 296.101 226.219 291.036 229.343 287.912L274.598 242.657C277.722 239.533 282.787 239.533 285.912 242.657L331.167 287.912C334.291 291.036 334.291 296.101 331.167 299.225L285.912 344.48C282.787 347.604 277.722 347.604 274.598 344.48L229.343 299.225Z" fill="url(#paint10_linear_901_4368)" fill-opacity="0.16"/>
<path d="M229.343 459.225C226.219 456.101 226.219 451.036 229.343 447.912L274.598 402.657C277.722 399.533 282.787 399.533 285.912 402.657L331.167 447.912C334.291 451.036 334.291 456.101 331.167 459.225L285.912 504.48C282.787 507.604 277.722 507.604 274.598 504.48L229.343 459.225Z" fill="url(#paint11_linear_901_4368)" fill-opacity="0.16"/>
<path d="M309.343 59.2254C306.219 56.1012 306.219 51.0359 309.343 47.9117L354.598 2.65687C357.722 -0.467327 362.787 -0.467329 365.912 2.65687L411.167 47.9117C414.291 51.0359 414.291 56.1012 411.167 59.2254L365.912 104.48C362.787 107.604 357.722 107.604 354.598 104.48L309.343 59.2254Z" fill="url(#paint12_linear_901_4368)" fill-opacity="0.16"/>
<path d="M309.343 219.225C306.219 216.101 306.219 211.036 309.343 207.912L354.598 162.657C357.722 159.533 362.787 159.533 365.912 162.657L411.167 207.912C414.291 211.036 414.291 216.101 411.167 219.225L365.912 264.48C362.787 267.604 357.722 267.604 354.598 264.48L309.343 219.225Z" fill="url(#paint13_linear_901_4368)" fill-opacity="0.16"/>
<path d="M309.343 379.225C306.219 376.101 306.219 371.036 309.343 367.912L354.598 322.657C357.722 319.533 362.787 319.533 365.912 322.657L411.167 367.912C414.291 371.036 414.291 376.101 411.167 379.225L365.912 424.48C362.787 427.604 357.722 427.604 354.598 424.48L309.343 379.225Z" fill="url(#paint14_linear_901_4368)" fill-opacity="0.16"/>
<path d="M389.343 139.225C386.219 136.101 386.219 131.036 389.343 127.912L434.598 82.6569C437.722 79.5327 442.787 79.5327 445.912 82.6569L491.167 127.912C494.291 131.036 494.291 136.101 491.167 139.225L445.912 184.48C442.787 187.604 437.722 187.604 434.598 184.48L389.343 139.225Z" fill="url(#paint15_linear_901_4368)" fill-opacity="0.16"/>
<path d="M389.343 299.225C386.219 296.101 386.219 291.036 389.343 287.912L434.598 242.657C437.722 239.533 442.787 239.533 445.912 242.657L491.167 287.912C494.291 291.036 494.291 296.101 491.167 299.225L445.912 344.48C442.787 347.604 437.722 347.604 434.598 344.48L389.343 299.225Z" fill="url(#paint16_linear_901_4368)" fill-opacity="0.16"/>
<path d="M389.343 459.225C386.219 456.101 386.219 451.036 389.343 447.912L434.598 402.657C437.722 399.533 442.787 399.533 445.912 402.657L491.167 447.912C494.291 451.036 494.291 456.101 491.167 459.225L445.912 504.48C442.787 507.604 437.722 507.604 434.598 504.48L389.343 459.225Z" fill="url(#paint17_linear_901_4368)" fill-opacity="0.16"/>
<path d="M469.343 59.2254C466.219 56.1012 466.219 51.0359 469.343 47.9117L514.598 2.65687C517.722 -0.467327 522.787 -0.467329 525.912 2.65687L571.167 47.9117C574.291 51.0359 574.291 56.1012 571.167 59.2254L525.912 104.48C522.787 107.604 517.722 107.604 514.598 104.48L469.343 59.2254Z" fill="url(#paint18_linear_901_4368)" fill-opacity="0.16"/>
<path d="M469.343 219.225C466.219 216.101 466.219 211.036 469.343 207.912L514.598 162.657C517.722 159.533 522.787 159.533 525.912 162.657L571.167 207.912C574.291 211.036 574.291 216.101 571.167 219.225L525.912 264.48C522.787 267.604 517.722 267.604 514.598 264.48L469.343 219.225Z" fill="url(#paint19_linear_901_4368)" fill-opacity="0.16"/>
<path d="M469.343 379.225C466.219 376.101 466.219 371.036 469.343 367.912L514.598 322.657C517.722 319.533 522.787 319.533 525.912 322.657L571.167 367.912C574.291 371.036 574.291 376.101 571.167 379.225L525.912 424.48C522.787 427.604 517.722 427.604 514.598 424.48L469.343 379.225Z" fill="url(#paint20_linear_901_4368)" fill-opacity="0.16"/>
<path d="M549.343 139.225C546.219 136.101 546.219 131.036 549.343 127.912L594.598 82.6569C597.722 79.5327 602.787 79.5327 605.912 82.6569L651.167 127.912C654.291 131.036 654.291 136.101 651.167 139.225L605.912 184.48C602.787 187.604 597.722 187.604 594.598 184.48L549.343 139.225Z" fill="url(#paint21_linear_901_4368)" fill-opacity="0.16"/>
<path d="M549.343 299.225C546.219 296.101 546.219 291.036 549.343 287.912L594.598 242.657C597.722 239.533 602.787 239.533 605.912 242.657L651.167 287.912C654.291 291.036 654.291 296.101 651.167 299.225L605.912 344.48C602.787 347.604 597.722 347.604 594.598 344.48L549.343 299.225Z" fill="url(#paint22_linear_901_4368)" fill-opacity="0.16"/>
<path d="M549.343 459.225C546.219 456.101 546.219 451.036 549.343 447.912L594.598 402.657C597.722 399.533 602.787 399.533 605.912 402.657L651.167 447.912C654.291 451.036 654.291 456.101 651.167 459.225L605.912 504.48C602.787 507.604 597.722 507.604 594.598 504.48L549.343 459.225Z" fill="url(#paint23_linear_901_4368)" fill-opacity="0.16"/>
<path d="M629.343 59.2254C626.219 56.1012 626.219 51.0359 629.343 47.9117L674.598 2.65687C677.722 -0.467327 682.787 -0.467329 685.912 2.65687L731.167 47.9117C734.291 51.0359 734.291 56.1012 731.167 59.2254L685.912 104.48C682.787 107.604 677.722 107.604 674.598 104.48L629.343 59.2254Z" fill="url(#paint24_linear_901_4368)" fill-opacity="0.16"/>
<path d="M629.343 219.225C626.219 216.101 626.219 211.036 629.343 207.912L674.598 162.657C677.722 159.533 682.787 159.533 685.912 162.657L731.167 207.912C734.291 211.036 734.291 216.101 731.167 219.225L685.912 264.48C682.787 267.604 677.722 267.604 674.598 264.48L629.343 219.225Z" fill="url(#paint25_linear_901_4368)" fill-opacity="0.16"/>
<path d="M629.343 379.225C626.219 376.101 626.219 371.036 629.343 367.912L674.598 322.657C677.722 319.533 682.787 319.533 685.912 322.657L731.167 367.912C734.291 371.036 734.291 376.101 731.167 379.225L685.912 424.48C682.787 427.604 677.722 427.604 674.598 424.48L629.343 379.225Z" fill="url(#paint26_linear_901_4368)" fill-opacity="0.16"/>
<path d="M709.343 139.225C706.219 136.101 706.219 131.036 709.343 127.912L754.598 82.6569C757.722 79.5327 762.787 79.5327 765.912 82.6569L811.167 127.912C814.291 131.036 814.291 136.101 811.167 139.225L765.912 184.48C762.787 187.604 757.722 187.604 754.598 184.48L709.343 139.225Z" fill="url(#paint27_linear_901_4368)" fill-opacity="0.16"/>
<path d="M709.343 299.225C706.219 296.101 706.219 291.036 709.343 287.912L754.598 242.657C757.722 239.533 762.787 239.533 765.912 242.657L811.167 287.912C814.291 291.036 814.291 296.101 811.167 299.225L765.912 344.48C762.787 347.604 757.722 347.604 754.598 344.48L709.343 299.225Z" fill="url(#paint28_linear_901_4368)" fill-opacity="0.16"/>
<path d="M709.343 459.225C706.219 456.101 706.219 451.036 709.343 447.912L754.598 402.657C757.722 399.533 762.787 399.533 765.912 402.657L811.167 447.912C814.291 451.036 814.291 456.101 811.167 459.225L765.912 504.48C762.787 507.604 757.722 507.604 754.598 504.48L709.343 459.225Z" fill="url(#paint29_linear_901_4368)" fill-opacity="0.16"/>
<path d="M789.343 59.2254C786.219 56.1012 786.219 51.0359 789.343 47.9117L834.598 2.65687C837.722 -0.467327 842.787 -0.467329 845.912 2.65687L891.167 47.9117C894.291 51.0359 894.291 56.1012 891.167 59.2254L845.912 104.48C842.787 107.604 837.722 107.604 834.598 104.48L789.343 59.2254Z" fill="url(#paint30_linear_901_4368)" fill-opacity="0.16"/>
<path d="M789.343 219.225C786.219 216.101 786.219 211.036 789.343 207.912L834.598 162.657C837.722 159.533 842.787 159.533 845.912 162.657L891.167 207.912C894.291 211.036 894.291 216.101 891.167 219.225L845.912 264.48C842.787 267.604 837.722 267.604 834.598 264.48L789.343 219.225Z" fill="url(#paint31_linear_901_4368)" fill-opacity="0.16"/>
<path d="M789.343 379.225C786.219 376.101 786.219 371.036 789.343 367.912L834.598 322.657C837.722 319.533 842.787 319.533 845.912 322.657L891.167 367.912C894.291 371.036 894.291 376.101 891.167 379.225L845.912 424.48C842.787 427.604 837.722 427.604 834.598 424.48L789.343 379.225Z" fill="url(#paint32_linear_901_4368)" fill-opacity="0.16"/>
<path d="M869.343 139.225C866.219 136.101 866.219 131.036 869.343 127.912L914.598 82.6569C917.722 79.5327 922.787 79.5327 925.912 82.6569L971.167 127.912C974.291 131.036 974.291 136.101 971.167 139.225L925.912 184.48C922.787 187.604 917.722 187.604 914.598 184.48L869.343 139.225Z" fill="url(#paint33_linear_901_4368)" fill-opacity="0.16"/>
<path d="M869.343 299.225C866.219 296.101 866.219 291.036 869.343 287.912L914.598 242.657C917.722 239.533 922.787 239.533 925.912 242.657L971.167 287.912C974.291 291.036 974.291 296.101 971.167 299.225L925.912 344.48C922.787 347.604 917.722 347.604 914.598 344.48L869.343 299.225Z" fill="url(#paint34_linear_901_4368)" fill-opacity="0.16"/>
<path d="M869.343 459.225C866.219 456.101 866.219 451.036 869.343 447.912L914.598 402.657C917.722 399.533 922.787 399.533 925.912 402.657L971.167 447.912C974.291 451.036 974.291 456.101 971.167 459.225L925.912 504.48C922.787 507.604 917.722 507.604 914.598 504.48L869.343 459.225Z" fill="url(#paint35_linear_901_4368)" fill-opacity="0.16"/>
<path d="M949.343 59.2254C946.219 56.1012 946.219 51.0359 949.343 47.9117L994.598 2.65687C997.722 -0.467327 1002.79 -0.467329 1005.91 2.65687L1051.17 47.9117C1054.29 51.0359 1054.29 56.1012 1051.17 59.2254L1005.91 104.48C1002.79 107.604 997.722 107.604 994.598 104.48L949.343 59.2254Z" fill="url(#paint36_linear_901_4368)" fill-opacity="0.16"/>
<path d="M949.343 219.225C946.219 216.101 946.219 211.036 949.343 207.912L994.598 162.657C997.722 159.533 1002.79 159.533 1005.91 162.657L1051.17 207.912C1054.29 211.036 1054.29 216.101 1051.17 219.225L1005.91 264.48C1002.79 267.604 997.722 267.604 994.598 264.48L949.343 219.225Z" fill="url(#paint37_linear_901_4368)" fill-opacity="0.16"/>
<path d="M949.343 379.225C946.219 376.101 946.219 371.036 949.343 367.912L994.598 322.657C997.722 319.533 1002.79 319.533 1005.91 322.657L1051.17 367.912C1054.29 371.036 1054.29 376.101 1051.17 379.225L1005.91 424.48C1002.79 427.604 997.722 427.604 994.598 424.48L949.343 379.225Z" fill="url(#paint38_linear_901_4368)" fill-opacity="0.16"/>
<path d="M1029.34 139.225C1026.22 136.101 1026.22 131.036 1029.34 127.912L1074.6 82.6569C1077.72 79.5327 1082.79 79.5327 1085.91 82.6569L1131.17 127.912C1134.29 131.036 1134.29 136.101 1131.17 139.225L1085.91 184.48C1082.79 187.604 1077.72 187.604 1074.6 184.48L1029.34 139.225Z" fill="url(#paint39_linear_901_4368)" fill-opacity="0.16"/>
<path d="M1029.34 299.225C1026.22 296.101 1026.22 291.036 1029.34 287.912L1074.6 242.657C1077.72 239.533 1082.79 239.533 1085.91 242.657L1131.17 287.912C1134.29 291.036 1134.29 296.101 1131.17 299.225L1085.91 344.48C1082.79 347.604 1077.72 347.604 1074.6 344.48L1029.34 299.225Z" fill="url(#paint40_linear_901_4368)" fill-opacity="0.16"/>
<path d="M1029.34 459.225C1026.22 456.101 1026.22 451.036 1029.34 447.912L1074.6 402.657C1077.72 399.533 1082.79 399.533 1085.91 402.657L1131.17 447.912C1134.29 451.036 1134.29 456.101 1131.17 459.225L1085.91 504.48C1082.79 507.604 1077.72 507.604 1074.6 504.48L1029.34 459.225Z" fill="url(#paint41_linear_901_4368)" fill-opacity="0.16"/>
<path d="M1109.34 59.2254C1106.22 56.1012 1106.22 51.0359 1109.34 47.9117L1154.6 2.65687C1157.72 -0.467327 1162.79 -0.467329 1165.91 2.65687L1211.17 47.9117C1214.29 51.0359 1214.29 56.1012 1211.17 59.2254L1165.91 104.48C1162.79 107.604 1157.72 107.604 1154.6 104.48L1109.34 59.2254Z" fill="url(#paint42_linear_901_4368)" fill-opacity="0.16"/>
<path d="M1109.34 219.225C1106.22 216.101 1106.22 211.036 1109.34 207.912L1154.6 162.657C1157.72 159.533 1162.79 159.533 1165.91 162.657L1211.17 207.912C1214.29 211.036 1214.29 216.101 1211.17 219.225L1165.91 264.48C1162.79 267.604 1157.72 267.604 1154.6 264.48L1109.34 219.225Z" fill="url(#paint43_linear_901_4368)" fill-opacity="0.16"/>
<path d="M1109.34 379.225C1106.22 376.101 1106.22 371.036 1109.34 367.912L1154.6 322.657C1157.72 319.533 1162.79 319.533 1165.91 322.657L1211.17 367.912C1214.29 371.036 1214.29 376.101 1211.17 379.225L1165.91 424.48C1162.79 427.604 1157.72 427.604 1154.6 424.48L1109.34 379.225Z" fill="url(#paint44_linear_901_4368)" fill-opacity="0.16"/>
<path d="M1189.34 139.225C1186.22 136.101 1186.22 131.036 1189.34 127.912L1234.6 82.6569C1237.72 79.5327 1242.79 79.5327 1245.91 82.6569L1291.17 127.912C1294.29 131.036 1294.29 136.101 1291.17 139.225L1245.91 184.48C1242.79 187.604 1237.72 187.604 1234.6 184.48L1189.34 139.225Z" fill="url(#paint45_linear_901_4368)" fill-opacity="0.16"/>
<path d="M1189.34 299.225C1186.22 296.101 1186.22 291.036 1189.34 287.912L1234.6 242.657C1237.72 239.533 1242.79 239.533 1245.91 242.657L1291.17 287.912C1294.29 291.036 1294.29 296.101 1291.17 299.225L1245.91 344.48C1242.79 347.604 1237.72 347.604 1234.6 344.48L1189.34 299.225Z" fill="url(#paint46_linear_901_4368)" fill-opacity="0.16"/>
<path d="M1189.34 459.225C1186.22 456.101 1186.22 451.036 1189.34 447.912L1234.6 402.657C1237.72 399.533 1242.79 399.533 1245.91 402.657L1291.17 447.912C1294.29 451.036 1294.29 456.101 1291.17 459.225L1245.91 504.48C1242.79 507.604 1237.72 507.604 1234.6 504.48L1189.34 459.225Z" fill="url(#paint47_linear_901_4368)" fill-opacity="0.16"/>
<path d="M1269.34 59.2254C1266.22 56.1012 1266.22 51.0359 1269.34 47.9117L1314.6 2.65687C1317.72 -0.467327 1322.79 -0.467329 1325.91 2.65687L1371.17 47.9117C1374.29 51.0359 1374.29 56.1012 1371.17 59.2254L1325.91 104.48C1322.79 107.604 1317.72 107.604 1314.6 104.48L1269.34 59.2254Z" fill="url(#paint48_linear_901_4368)" fill-opacity="0.16"/>
<path d="M1269.34 219.225C1266.22 216.101 1266.22 211.036 1269.34 207.912L1314.6 162.657C1317.72 159.533 1322.79 159.533 1325.91 162.657L1371.17 207.912C1374.29 211.036 1374.29 216.101 1371.17 219.225L1325.91 264.48C1322.79 267.604 1317.72 267.604 1314.6 264.48L1269.34 219.225Z" fill="url(#paint49_linear_901_4368)" fill-opacity="0.16"/>
<path d="M1269.34 379.225C1266.22 376.101 1266.22 371.036 1269.34 367.912L1314.6 322.657C1317.72 319.533 1322.79 319.533 1325.91 322.657L1371.17 367.912C1374.29 371.036 1374.29 376.101 1371.17 379.225L1325.91 424.48C1322.79 427.604 1317.72 427.604 1314.6 424.48L1269.34 379.225Z" fill="url(#paint50_linear_901_4368)" fill-opacity="0.16"/>
<path d="M1349.34 139.225C1346.22 136.101 1346.22 131.036 1349.34 127.912L1394.6 82.6569C1397.72 79.5327 1402.79 79.5327 1405.91 82.6569L1451.17 127.912C1454.29 131.036 1454.29 136.101 1451.17 139.225L1405.91 184.48C1402.79 187.604 1397.72 187.604 1394.6 184.48L1349.34 139.225Z" fill="url(#paint51_linear_901_4368)" fill-opacity="0.16"/>
<path d="M1349.34 299.225C1346.22 296.101 1346.22 291.036 1349.34 287.912L1394.6 242.657C1397.72 239.533 1402.79 239.533 1405.91 242.657L1451.17 287.912C1454.29 291.036 1454.29 296.101 1451.17 299.225L1405.91 344.48C1402.79 347.604 1397.72 347.604 1394.6 344.48L1349.34 299.225Z" fill="url(#paint52_linear_901_4368)" fill-opacity="0.16"/>
<path d="M1349.34 459.225C1346.22 456.101 1346.22 451.036 1349.34 447.912L1394.6 402.657C1397.72 399.533 1402.79 399.533 1405.91 402.657L1451.17 447.912C1454.29 451.036 1454.29 456.101 1451.17 459.225L1405.91 504.48C1402.79 507.604 1397.72 507.604 1394.6 504.48L1349.34 459.225Z" fill="url(#paint53_linear_901_4368)" fill-opacity="0.16"/>
<defs>
<linearGradient id="paint0_linear_901_4368" x1="720.255" y1="0.313721" x2="720.255" y2="506.823" gradientUnits="userSpaceOnUse">
<stop stop-color="#5B8CBB" stop-opacity="0"/>
<stop offset="1" stop-color="#5B8CBB"/>
</linearGradient>
<linearGradient id="paint1_linear_901_4368" x1="720.255" y1="0.313721" x2="720.255" y2="506.823" gradientUnits="userSpaceOnUse">
<stop stop-color="#5B8CBB" stop-opacity="0"/>
<stop offset="1" stop-color="#5B8CBB"/>
</linearGradient>
<linearGradient id="paint2_linear_901_4368" x1="720.255" y1="0.313721" x2="720.255" y2="506.823" gradientUnits="userSpaceOnUse">
<stop stop-color="#5B8CBB" stop-opacity="0"/>
<stop offset="1" stop-color="#5B8CBB"/>
</linearGradient>
<linearGradient id="paint3_linear_901_4368" x1="720.255" y1="0.313721" x2="720.255" y2="506.823" gradientUnits="userSpaceOnUse">
<stop stop-color="#5B8CBB" stop-opacity="0"/>
<stop offset="1" stop-color="#5B8CBB"/>
</linearGradient>
<linearGradient id="paint4_linear_901_4368" x1="720.255" y1="0.313721" x2="720.255" y2="506.823" gradientUnits="userSpaceOnUse">
<stop stop-color="#5B8CBB" stop-opacity="0"/>
<stop offset="1" stop-color="#5B8CBB"/>
</linearGradient>
<linearGradient id="paint5_linear_901_4368" x1="720.255" y1="0.313721" x2="720.255" y2="506.823" gradientUnits="userSpaceOnUse">
<stop stop-color="#5B8CBB" stop-opacity="0"/>
<stop offset="1" stop-color="#5B8CBB"/>
</linearGradient>
<linearGradient id="paint6_linear_901_4368" x1="720.255" y1="0.313721" x2="720.255" y2="506.823" gradientUnits="userSpaceOnUse">
<stop stop-color="#5B8CBB" stop-opacity="0"/>
<stop offset="1" stop-color="#5B8CBB"/>
</linearGradient>
<linearGradient id="paint7_linear_901_4368" x1="720.255" y1="0.313721" x2="720.255" y2="506.823" gradientUnits="userSpaceOnUse">
<stop stop-color="#5B8CBB" stop-opacity="0"/>
<stop offset="1" stop-color="#5B8CBB"/>
</linearGradient>
<linearGradient id="paint8_linear_901_4368" x1="720.255" y1="0.313721" x2="720.255" y2="506.823" gradientUnits="userSpaceOnUse">
<stop stop-color="#5B8CBB" stop-opacity="0"/>
<stop offset="1" stop-color="#5B8CBB"/>
</linearGradient>
<linearGradient id="paint9_linear_901_4368" x1="720.255" y1="0.313721" x2="720.255" y2="506.823" gradientUnits="userSpaceOnUse">
<stop stop-color="#5B8CBB" stop-opacity="0"/>
<stop offset="1" stop-color="#5B8CBB"/>
</linearGradient>
<linearGradient id="paint10_linear_901_4368" x1="720.255" y1="0.313721" x2="720.255" y2="506.823" gradientUnits="userSpaceOnUse">
<stop stop-color="#5B8CBB" stop-opacity="0"/>
<stop offset="1" stop-color="#5B8CBB"/>
</linearGradient>
<linearGradient id="paint11_linear_901_4368" x1="720.255" y1="0.313721" x2="720.255" y2="506.823" gradientUnits="userSpaceOnUse">
<stop stop-color="#5B8CBB" stop-opacity="0"/>
<stop offset="1" stop-color="#5B8CBB"/>
</linearGradient>
<linearGradient id="paint12_linear_901_4368" x1="720.255" y1="0.313721" x2="720.255" y2="506.823" gradientUnits="userSpaceOnUse">
<stop stop-color="#5B8CBB" stop-opacity="0"/>
<stop offset="1" stop-color="#5B8CBB"/>
</linearGradient>
<linearGradient id="paint13_linear_901_4368" x1="720.255" y1="0.313721" x2="720.255" y2="506.823" gradientUnits="userSpaceOnUse">
<stop stop-color="#5B8CBB" stop-opacity="0"/>
<stop offset="1" stop-color="#5B8CBB"/>
</linearGradient>
<linearGradient id="paint14_linear_901_4368" x1="720.255" y1="0.313721" x2="720.255" y2="506.823" gradientUnits="userSpaceOnUse">
<stop stop-color="#5B8CBB" stop-opacity="0"/>
<stop offset="1" stop-color="#5B8CBB"/>
</linearGradient>
<linearGradient id="paint15_linear_901_4368" x1="720.255" y1="0.313721" x2="720.255" y2="506.823" gradientUnits="userSpaceOnUse">
<stop stop-color="#5B8CBB" stop-opacity="0"/>
<stop offset="1" stop-color="#5B8CBB"/>
</linearGradient>
<linearGradient id="paint16_linear_901_4368" x1="720.255" y1="0.313721" x2="720.255" y2="506.823" gradientUnits="userSpaceOnUse">
<stop stop-color="#5B8CBB" stop-opacity="0"/>
<stop offset="1" stop-color="#5B8CBB"/>
</linearGradient>
<linearGradient id="paint17_linear_901_4368" x1="720.255" y1="0.313721" x2="720.255" y2="506.823" gradientUnits="userSpaceOnUse">
<stop stop-color="#5B8CBB" stop-opacity="0"/>
<stop offset="1" stop-color="#5B8CBB"/>
</linearGradient>
<linearGradient id="paint18_linear_901_4368" x1="720.255" y1="0.313721" x2="720.255" y2="506.823" gradientUnits="userSpaceOnUse">
<stop stop-color="#5B8CBB" stop-opacity="0"/>
<stop offset="1" stop-color="#5B8CBB"/>
</linearGradient>
<linearGradient id="paint19_linear_901_4368" x1="720.255" y1="0.313721" x2="720.255" y2="506.823" gradientUnits="userSpaceOnUse">
<stop stop-color="#5B8CBB" stop-opacity="0"/>
<stop offset="1" stop-color="#5B8CBB"/>
</linearGradient>
<linearGradient id="paint20_linear_901_4368" x1="720.255" y1="0.313721" x2="720.255" y2="506.823" gradientUnits="userSpaceOnUse">
<stop stop-color="#5B8CBB" stop-opacity="0"/>
<stop offset="1" stop-color="#5B8CBB"/>
</linearGradient>
<linearGradient id="paint21_linear_901_4368" x1="720.255" y1="0.313721" x2="720.255" y2="506.823" gradientUnits="userSpaceOnUse">
<stop stop-color="#5B8CBB" stop-opacity="0"/>
<stop offset="1" stop-color="#5B8CBB"/>
</linearGradient>
<linearGradient id="paint22_linear_901_4368" x1="720.255" y1="0.313721" x2="720.255" y2="506.823" gradientUnits="userSpaceOnUse">
<stop stop-color="#5B8CBB" stop-opacity="0"/>
<stop offset="1" stop-color="#5B8CBB"/>
</linearGradient>
<linearGradient id="paint23_linear_901_4368" x1="720.255" y1="0.313721" x2="720.255" y2="506.823" gradientUnits="userSpaceOnUse">
<stop stop-color="#5B8CBB" stop-opacity="0"/>
<stop offset="1" stop-color="#5B8CBB"/>
</linearGradient>
<linearGradient id="paint24_linear_901_4368" x1="720.255" y1="0.313721" x2="720.255" y2="506.823" gradientUnits="userSpaceOnUse">
<stop stop-color="#5B8CBB" stop-opacity="0"/>
<stop offset="1" stop-color="#5B8CBB"/>
</linearGradient>
<linearGradient id="paint25_linear_901_4368" x1="720.255" y1="0.313721" x2="720.255" y2="506.823" gradientUnits="userSpaceOnUse">
<stop stop-color="#5B8CBB" stop-opacity="0"/>
<stop offset="1" stop-color="#5B8CBB"/>
</linearGradient>
<linearGradient id="paint26_linear_901_4368" x1="720.255" y1="0.313721" x2="720.255" y2="506.823" gradientUnits="userSpaceOnUse">
<stop stop-color="#5B8CBB" stop-opacity="0"/>
<stop offset="1" stop-color="#5B8CBB"/>
</linearGradient>
<linearGradient id="paint27_linear_901_4368" x1="720.255" y1="0.313721" x2="720.255" y2="506.823" gradientUnits="userSpaceOnUse">
<stop stop-color="#5B8CBB" stop-opacity="0"/>
<stop offset="1" stop-color="#5B8CBB"/>
</linearGradient>
<linearGradient id="paint28_linear_901_4368" x1="720.255" y1="0.313721" x2="720.255" y2="506.823" gradientUnits="userSpaceOnUse">
<stop stop-color="#5B8CBB" stop-opacity="0"/>
<stop offset="1" stop-color="#5B8CBB"/>
</linearGradient>
<linearGradient id="paint29_linear_901_4368" x1="720.255" y1="0.313721" x2="720.255" y2="506.823" gradientUnits="userSpaceOnUse">
<stop stop-color="#5B8CBB" stop-opacity="0"/>
<stop offset="1" stop-color="#5B8CBB"/>
</linearGradient>
<linearGradient id="paint30_linear_901_4368" x1="720.255" y1="0.313721" x2="720.255" y2="506.823" gradientUnits="userSpaceOnUse">
<stop stop-color="#5B8CBB" stop-opacity="0"/>
<stop offset="1" stop-color="#5B8CBB"/>
</linearGradient>
<linearGradient id="paint31_linear_901_4368" x1="720.255" y1="0.313721" x2="720.255" y2="506.823" gradientUnits="userSpaceOnUse">
<stop stop-color="#5B8CBB" stop-opacity="0"/>
<stop offset="1" stop-color="#5B8CBB"/>
</linearGradient>
<linearGradient id="paint32_linear_901_4368" x1="720.255" y1="0.313721" x2="720.255" y2="506.823" gradientUnits="userSpaceOnUse">
<stop stop-color="#5B8CBB" stop-opacity="0"/>
<stop offset="1" stop-color="#5B8CBB"/>
</linearGradient>
<linearGradient id="paint33_linear_901_4368" x1="720.255" y1="0.313721" x2="720.255" y2="506.823" gradientUnits="userSpaceOnUse">
<stop stop-color="#5B8CBB" stop-opacity="0"/>
<stop offset="1" stop-color="#5B8CBB"/>
</linearGradient>
<linearGradient id="paint34_linear_901_4368" x1="720.255" y1="0.313721" x2="720.255" y2="506.823" gradientUnits="userSpaceOnUse">
<stop stop-color="#5B8CBB" stop-opacity="0"/>
<stop offset="1" stop-color="#5B8CBB"/>
</linearGradient>
<linearGradient id="paint35_linear_901_4368" x1="720.255" y1="0.313721" x2="720.255" y2="506.823" gradientUnits="userSpaceOnUse">
<stop stop-color="#5B8CBB" stop-opacity="0"/>
<stop offset="1" stop-color="#5B8CBB"/>
</linearGradient>
<linearGradient id="paint36_linear_901_4368" x1="720.255" y1="0.313721" x2="720.255" y2="506.823" gradientUnits="userSpaceOnUse">
<stop stop-color="#5B8CBB" stop-opacity="0"/>
<stop offset="1" stop-color="#5B8CBB"/>
</linearGradient>
<linearGradient id="paint37_linear_901_4368" x1="720.255" y1="0.313721" x2="720.255" y2="506.823" gradientUnits="userSpaceOnUse">
<stop stop-color="#5B8CBB" stop-opacity="0"/>
<stop offset="1" stop-color="#5B8CBB"/>
</linearGradient>
<linearGradient id="paint38_linear_901_4368" x1="720.255" y1="0.313721" x2="720.255" y2="506.823" gradientUnits="userSpaceOnUse">
<stop stop-color="#5B8CBB" stop-opacity="0"/>
<stop offset="1" stop-color="#5B8CBB"/>
</linearGradient>
<linearGradient id="paint39_linear_901_4368" x1="720.255" y1="0.313721" x2="720.255" y2="506.823" gradientUnits="userSpaceOnUse">
<stop stop-color="#5B8CBB" stop-opacity="0"/>
<stop offset="1" stop-color="#5B8CBB"/>
</linearGradient>
<linearGradient id="paint40_linear_901_4368" x1="720.255" y1="0.313721" x2="720.255" y2="506.823" gradientUnits="userSpaceOnUse">
<stop stop-color="#5B8CBB" stop-opacity="0"/>
<stop offset="1" stop-color="#5B8CBB"/>
</linearGradient>
<linearGradient id="paint41_linear_901_4368" x1="720.255" y1="0.313721" x2="720.255" y2="506.823" gradientUnits="userSpaceOnUse">
<stop stop-color="#5B8CBB" stop-opacity="0"/>
<stop offset="1" stop-color="#5B8CBB"/>
</linearGradient>
<linearGradient id="paint42_linear_901_4368" x1="720.255" y1="0.313721" x2="720.255" y2="506.823" gradientUnits="userSpaceOnUse">
<stop stop-color="#5B8CBB" stop-opacity="0"/>
<stop offset="1" stop-color="#5B8CBB"/>
</linearGradient>
<linearGradient id="paint43_linear_901_4368" x1="720.255" y1="0.313721" x2="720.255" y2="506.823" gradientUnits="userSpaceOnUse">
<stop stop-color="#5B8CBB" stop-opacity="0"/>
<stop offset="1" stop-color="#5B8CBB"/>
</linearGradient>
<linearGradient id="paint44_linear_901_4368" x1="720.255" y1="0.313721" x2="720.255" y2="506.823" gradientUnits="userSpaceOnUse">
<stop stop-color="#5B8CBB" stop-opacity="0"/>
<stop offset="1" stop-color="#5B8CBB"/>
</linearGradient>
<linearGradient id="paint45_linear_901_4368" x1="720.255" y1="0.313721" x2="720.255" y2="506.823" gradientUnits="userSpaceOnUse">
<stop stop-color="#5B8CBB" stop-opacity="0"/>
<stop offset="1" stop-color="#5B8CBB"/>
</linearGradient>
<linearGradient id="paint46_linear_901_4368" x1="720.255" y1="0.313721" x2="720.255" y2="506.823" gradientUnits="userSpaceOnUse">
<stop stop-color="#5B8CBB" stop-opacity="0"/>
<stop offset="1" stop-color="#5B8CBB"/>
</linearGradient>
<linearGradient id="paint47_linear_901_4368" x1="720.255" y1="0.313721" x2="720.255" y2="506.823" gradientUnits="userSpaceOnUse">
<stop stop-color="#5B8CBB" stop-opacity="0"/>
<stop offset="1" stop-color="#5B8CBB"/>
</linearGradient>
<linearGradient id="paint48_linear_901_4368" x1="720.255" y1="0.313721" x2="720.255" y2="506.823" gradientUnits="userSpaceOnUse">
<stop stop-color="#5B8CBB" stop-opacity="0"/>
<stop offset="1" stop-color="#5B8CBB"/>
</linearGradient>
<linearGradient id="paint49_linear_901_4368" x1="720.255" y1="0.313721" x2="720.255" y2="506.823" gradientUnits="userSpaceOnUse">
<stop stop-color="#5B8CBB" stop-opacity="0"/>
<stop offset="1" stop-color="#5B8CBB"/>
</linearGradient>
<linearGradient id="paint50_linear_901_4368" x1="720.255" y1="0.313721" x2="720.255" y2="506.823" gradientUnits="userSpaceOnUse">
<stop stop-color="#5B8CBB" stop-opacity="0"/>
<stop offset="1" stop-color="#5B8CBB"/>
</linearGradient>
<linearGradient id="paint51_linear_901_4368" x1="720.255" y1="0.313721" x2="720.255" y2="506.823" gradientUnits="userSpaceOnUse">
<stop stop-color="#5B8CBB" stop-opacity="0"/>
<stop offset="1" stop-color="#5B8CBB"/>
</linearGradient>
<linearGradient id="paint52_linear_901_4368" x1="720.255" y1="0.313721" x2="720.255" y2="506.823" gradientUnits="userSpaceOnUse">
<stop stop-color="#5B8CBB" stop-opacity="0"/>
<stop offset="1" stop-color="#5B8CBB"/>
</linearGradient>
<linearGradient id="paint53_linear_901_4368" x1="720.255" y1="0.313721" x2="720.255" y2="506.823" gradientUnits="userSpaceOnUse">
<stop stop-color="#5B8CBB" stop-opacity="0"/>
<stop offset="1" stop-color="#5B8CBB"/>
</linearGradient>
</defs>
</svg>
